<svg width="57" height="46" viewBox="0 0 57 46" fill="none" xmlns="http://www.w3.org/2000/svg">
<g clip-path="url(#clip0_3006_10588)">
<path d="M23.5004 17.748L22.7834 17.011C21.1004 15.281 18.0144 15.878 16.9004 18.053C16.3774 19.076 16.2594 20.553 17.2144 22.438C18.1344 24.253 20.0484 26.427 23.5004 28.795C26.9524 26.427 28.8654 24.253 29.7864 22.438C30.7414 20.552 30.6244 19.076 30.1004 18.053C28.9864 15.878 25.9004 15.28 24.2174 17.01L23.5004 17.748ZM23.5004 30C8.16738 19.868 18.7794 11.96 23.3244 16.143C23.3844 16.198 23.4434 16.255 23.5004 16.314C23.5568 16.2551 23.6155 16.1984 23.6764 16.144C28.2204 11.958 38.8334 19.867 23.5004 30Z" fill="#23A6F0"/>
</g>
<path d="M37.0633 18.612H40.1113V27H38.7673V19.872H37.0633V18.612Z" fill="#23A6F0"/>
<defs>
<clipPath id="clip0_3006_10588">
<rect width="16" height="16" fill="white" transform="translate(15.5005 15)"/>
</clipPath>
</defs>
</svg>
