<svg width="57" height="46" viewBox="0 0 57 46" fill="none" xmlns="http://www.w3.org/2000/svg">
<g clip-path="url(#clip0_3006_10582)">
<path d="M15.5005 16.5C15.5005 16.3674 15.5532 16.2402 15.6469 16.1464C15.7407 16.0527 15.8679 16 16.0005 16H17.5005C17.612 16 17.7203 16.0374 17.8082 16.106C17.8961 16.1747 17.9585 16.2708 17.9855 16.379L18.3905 18H30.0005C30.0739 18.0001 30.1464 18.0163 30.2128 18.0476C30.2793 18.0788 30.338 18.1243 30.3849 18.1808C30.4317 18.2373 30.4656 18.3035 30.484 18.3745C30.5024 18.4456 30.505 18.5198 30.4915 18.592L28.9915 26.592C28.97 26.7066 28.9092 26.8101 28.8196 26.8846C28.7299 26.9591 28.6171 26.9999 28.5005 27H19.5005C19.3839 26.9999 19.2711 26.9591 19.1814 26.8846C19.0917 26.8101 19.0309 26.7066 19.0095 26.592L17.5105 18.607L17.1105 17H16.0005C15.8679 17 15.7407 16.9473 15.6469 16.8536C15.5532 16.7598 15.5005 16.6326 15.5005 16.5ZM18.6025 19L19.9155 26H28.0855L29.3985 19H18.6025ZM20.5005 27C19.9701 27 19.4613 27.2107 19.0863 27.5858C18.7112 27.9609 18.5005 28.4696 18.5005 29C18.5005 29.5304 18.7112 30.0391 19.0863 30.4142C19.4613 30.7893 19.9701 31 20.5005 31C21.0309 31 21.5396 30.7893 21.9147 30.4142C22.2898 30.0391 22.5005 29.5304 22.5005 29C22.5005 28.4696 22.2898 27.9609 21.9147 27.5858C21.5396 27.2107 21.0309 27 20.5005 27ZM27.5005 27C26.9701 27 26.4613 27.2107 26.0863 27.5858C25.7112 27.9609 25.5005 28.4696 25.5005 29C25.5005 29.5304 25.7112 30.0391 26.0863 30.4142C26.4613 30.7893 26.9701 31 27.5005 31C28.0309 31 28.5396 30.7893 28.9147 30.4142C29.2898 30.0391 29.5005 29.5304 29.5005 29C29.5005 28.4696 29.2898 27.9609 28.9147 27.5858C28.5396 27.2107 28.0309 27 27.5005 27ZM20.5005 28C20.7657 28 21.0201 28.1054 21.2076 28.2929C21.3951 28.4804 21.5005 28.7348 21.5005 29C21.5005 29.2652 21.3951 29.5196 21.2076 29.7071C21.0201 29.8946 20.7657 30 20.5005 30C20.2353 30 19.9809 29.8946 19.7934 29.7071C19.6058 29.5196 19.5005 29.2652 19.5005 29C19.5005 28.7348 19.6058 28.4804 19.7934 28.2929C19.9809 28.1054 20.2353 28 20.5005 28ZM27.5005 28C27.7657 28 28.0201 28.1054 28.2076 28.2929C28.3951 28.4804 28.5005 28.7348 28.5005 29C28.5005 29.2652 28.3951 29.5196 28.2076 29.7071C28.0201 29.8946 27.7657 30 27.5005 30C27.2353 30 26.9809 29.8946 26.7934 29.7071C26.6058 29.5196 26.5005 29.2652 26.5005 29C26.5005 28.7348 26.6058 28.4804 26.7934 28.2929C26.9809 28.1054 27.2353 28 27.5005 28Z" fill="#23A6F0"/>
</g>
<path d="M37.0633 18.612H40.1113V27H38.7673V19.872H37.0633V18.612Z" fill="#23A6F0"/>
<defs>
<clipPath id="clip0_3006_10582">
<rect width="16" height="16" fill="white" transform="translate(15.5005 15)"/>
</clipPath>
</defs>
</svg>
